<?xml version="1.0" encoding="UTF-8"?>
<svg version="1.1" xmlns="http://www.w3.org/2000/svg" width="512" height="512">
<path d="M0 0 C1.01201477 0.00054382 2.02402954 0.00108765 3.06671143 0.00164795 C19.59887291 0.04238923 35.523992 0.95817716 51.75 4.375 C52.78125 4.58930664 53.8125 4.80361328 54.875 5.02441406 C101.10680927 14.94980561 143.72188765 37.60106665 177.75 70.375 C178.7390332 71.32318604 178.7390332 71.32318604 179.74804688 72.29052734 C189.23630305 81.43497479 197.9762044 90.73234009 205.75 101.375 C206.60806152 102.52605017 207.46613451 103.67709177 208.32421875 104.828125 C214.36236829 113.01930614 219.72095521 121.53304105 224.75 130.375 C225.11448242 131.00680176 225.47896484 131.63860352 225.85449219 132.28955078 C240.78473018 158.37464001 250.26385054 187.71085114 254.75 217.375 C254.92660156 218.49745117 255.10320312 219.61990234 255.28515625 220.77636719 C256.9420586 232.38947743 257.14873513 243.90679945 257.125 255.625 C257.12418427 257.14302216 257.12418427 257.14302216 257.12335205 258.69171143 C257.08261077 275.22387291 256.16682284 291.148992 252.75 307.375 C252.42854004 308.921875 252.42854004 308.921875 252.10058594 310.5 C242.17519439 356.73180927 219.52393335 399.34688765 186.75 433.375 C186.11787598 434.03435547 185.48575195 434.69371094 184.83447266 435.37304688 C175.69002521 444.86130305 166.39265991 453.6012044 155.75 461.375 C154.59894983 462.23306152 153.44790823 463.09113451 152.296875 463.94921875 C144.10569386 469.98736829 135.59195895 475.34595521 126.75 480.375 C126.11819824 480.73948242 125.48639648 481.10396484 124.83544922 481.47949219 C98.75035999 496.40973018 69.41414886 505.88885054 39.75 510.375 C38.62754883 510.55160156 37.50509766 510.72820312 36.34863281 510.91015625 C24.73552257 512.5670586 13.21820055 512.77373513 1.5 512.75 C-0.01802216 512.74918427 -0.01802216 512.74918427 -1.56671143 512.74835205 C-18.09887291 512.70761077 -34.023992 511.79182284 -50.25 508.375 C-51.796875 508.05354004 -51.796875 508.05354004 -53.375 507.72558594 C-99.60680927 497.80019439 -142.22188765 475.14893335 -176.25 442.375 C-176.90935547 441.74287598 -177.56871094 441.11075195 -178.24804688 440.45947266 C-187.73630305 431.31502521 -196.4762044 422.01765991 -204.25 411.375 C-205.10806152 410.22394983 -205.96613451 409.07290823 -206.82421875 407.921875 C-212.86236829 399.73069386 -218.22095521 391.21695895 -223.25 382.375 C-223.61448242 381.74319824 -223.97896484 381.11139648 -224.35449219 380.46044922 C-239.28473018 354.37535999 -248.76385054 325.03914886 -253.25 295.375 C-253.51490234 293.69132324 -253.51490234 293.69132324 -253.78515625 291.97363281 C-255.4420586 280.36052257 -255.64873513 268.84320055 -255.625 257.125 C-255.62445618 256.11298523 -255.62391235 255.10097046 -255.62335205 254.05828857 C-255.58261077 237.52612709 -254.66682284 221.601008 -251.25 205.375 C-251.03569336 204.34375 -250.82138672 203.3125 -250.60058594 202.25 C-240.67519439 156.01819073 -218.02393335 113.40311235 -185.25 79.375 C-184.61787598 78.71564453 -183.98575195 78.05628906 -183.33447266 77.37695312 C-174.19002521 67.88869695 -164.89265991 59.1487956 -154.25 51.375 C-153.09894983 50.51693848 -151.94790823 49.65886549 -150.796875 48.80078125 C-142.60569386 42.76263171 -134.09195895 37.40404479 -125.25 32.375 C-124.61819824 32.01051758 -123.98639648 31.64603516 -123.33544922 31.27050781 C-97.25035999 16.34026982 -67.91414886 6.86114946 -38.25 2.375 C-37.12754883 2.19839844 -36.00509766 2.02179687 -34.84863281 1.83984375 C-23.23552257 0.1829414 -11.71820055 -0.02373513 0 0 Z " fill="#FE0087" transform="translate(255.25,-0.375)"/>
<path d="M0 0 C0.81303589 0.14253204 1.62607178 0.28506409 2.46374512 0.43191528 C14.55055401 2.57671937 26.35872801 5.41200595 38.1875 8.6875 C37.9709811 10.74442956 37.75441815 12.8013545 37.53753662 14.85824585 C37.37343946 16.42001736 37.21166745 17.98203369 37.05126953 19.54418945 C36.49489194 24.67921351 35.66351856 29.71715586 34.70947266 34.79223633 C33.58920229 41.00612142 32.75665736 47.26782961 31.86328125 53.51757812 C30.15432936 65.27877958 28.14329527 76.95272836 26.1875 88.6875 C9.3575 88.6875 -7.4725 88.6875 -24.8125 88.6875 C-27.42217246 78.24881015 -29.87821822 67.9165615 -31.9375 57.375 C-32.31455078 55.47524414 -32.31455078 55.47524414 -32.69921875 53.53710938 C-34.13664317 46.26344079 -35.48589103 38.98384931 -36.8125 31.6875 C-51.3325 31.6875 -65.8525 31.6875 -80.8125 31.6875 C-80.8125 42.9075 -80.8125 54.1275 -80.8125 65.6875 C-78.8325 66.6775 -78.8325 66.6775 -76.8125 67.6875 C-75.49945744 68.58055147 -74.20736241 69.50489766 -72.93359375 70.453125 C-72.18722656 71.00613281 -71.44085938 71.55914062 -70.671875 72.12890625 C-69.87265625 72.72574219 -69.0734375 73.32257813 -68.25 73.9375 C-66.53000821 75.21362294 -64.80995442 76.48966231 -63.08984375 77.765625 C-62.21183105 78.41853516 -61.33381836 79.07144531 -60.42919922 79.74414062 C-56.39908815 82.73720688 -52.35552286 85.71191271 -48.3125 88.6875 C-46.72781156 89.8553968 -45.14317629 91.02336577 -43.55859375 92.19140625 C-40.40665926 94.51405479 -37.25287412 96.83415777 -34.09765625 99.15234375 C-23.36261336 107.04321085 -12.67186731 114.99066989 -2.03662109 123.015625 C-0.04853995 124.51006843 1.9481842 125.99173128 3.94921875 127.46875 C16.27964411 136.63397542 25.50021368 146.49151053 33.1875 159.6875 C33.67992187 160.47125 34.17234375 161.255 34.6796875 162.0625 C43.0363649 176.59585199 43.66554621 193.4395435 43.6875 209.75 C43.69410141 210.94612411 43.69410141 210.94612411 43.70083618 212.16641235 C43.74209233 230.09486095 40.50108446 246.93131987 28.1875 260.6875 C27.59195313 261.37585938 26.99640625 262.06421875 26.3828125 262.7734375 C9.36618113 281.20223745 -19.48820045 285.43536801 -43.35473633 286.59454346 C-51.76093834 286.91247943 -60.17605891 286.91377501 -68.5871582 286.92773438 C-72.07983825 286.93737534 -75.5719119 286.96846241 -79.06445312 287 C-93.91673922 287.06949188 -108.35491192 286.0479665 -123.07089233 284.05737305 C-125.45031585 283.73636263 -127.83047099 283.4341137 -130.21411133 283.14648438 C-145.98637798 281.22726736 -161.40687771 278.57642739 -176.8125 274.6875 C-178.34763062 274.30458474 -179.88278518 273.92176544 -181.41796875 273.5390625 C-183.09826172 273.11753906 -183.09826172 273.11753906 -184.8125 272.6875 C-184.69536386 270.60370973 -184.56824985 268.52048038 -184.4375 266.4375 C-184.36789063 265.27734375 -184.29828125 264.1171875 -184.2265625 262.921875 C-183.86919327 258.59744254 -183.12471434 254.35664806 -182.38769531 250.08300781 C-181.76282189 246.3942389 -181.18826161 242.69912667 -180.62890625 239 C-180.47699829 237.99601166 -180.47699829 237.99601166 -180.32202148 236.97174072 C-180.11291505 235.5868411 -179.90413902 234.20189156 -179.69567871 232.81689453 C-179.36894303 230.64728005 -179.04058821 228.47791536 -178.71191406 226.30859375 C-177.74446658 219.91623455 -176.78400545 213.52315107 -175.85546875 207.125 C-175.65038696 205.72121094 -175.65038696 205.72121094 -175.44116211 204.2890625 C-175.19486158 202.59687779 -174.95199924 200.90418786 -174.71313477 199.2109375 C-173.92364253 193.79864253 -173.92364253 193.79864253 -172.8125 192.6875 C-171.0632128 192.59384994 -169.31013746 192.57005562 -167.55834961 192.57397461 C-166.43726303 192.57405014 -165.31617645 192.57412567 -164.16111755 192.57420349 C-162.33146202 192.58194542 -162.33146202 192.58194542 -160.46484375 192.58984375 C-158.6024984 192.59196617 -158.6024984 192.59196617 -156.70252991 192.59413147 C-153.39644509 192.59879409 -150.09042854 192.60778503 -146.78436279 192.61883545 C-143.4128885 192.62905173 -140.04140717 192.63362955 -136.66992188 192.63867188 C-130.05076225 192.64972605 -123.43163507 192.66648264 -116.8125 192.6875 C-114.4167306 200.84927055 -112.17694352 208.99681719 -110.375 217.3125 C-108.07999567 227.83472202 -105.42748029 238.22757885 -102.8125 248.6875 C-86.9725 249.0175 -71.1325 249.3475 -54.8125 249.6875 C-52.96703119 231.17352157 -52.96703119 231.17352157 -57.41845703 212.92871094 C-61.60758286 208.53028049 -66.76711924 205.82570475 -72.14746094 203.11523438 C-76.5399239 200.76207173 -80.37007755 197.7159167 -84.3125 194.6875 C-85.89452478 193.51599755 -87.47916862 192.3480237 -89.06640625 191.18359375 C-89.85031738 190.60593262 -90.63422852 190.02827148 -91.44189453 189.43310547 C-93.80260812 187.69478393 -96.16478247 185.95846552 -98.52734375 184.22265625 C-109.25995069 176.33357971 -119.94983736 168.38957356 -130.58398438 160.36816406 C-131.98524372 159.31138609 -133.38745021 158.25586166 -134.79101562 157.20214844 C-156.80298905 140.66361416 -173.00023847 122.79930545 -177.49609375 94.6484375 C-180.98921643 69.6971535 -180.98258156 43.78451854 -165.640625 22.703125 C-158.74465739 14.63337566 -150.71620523 9.32877404 -141.125 5 C-140.52679443 4.72647705 -139.92858887 4.4529541 -139.31225586 4.17114258 C-128.10860718 -0.62669274 -116.1410129 -2.95072872 -104.0625 -4.0625 C-102.76755615 -4.18391357 -101.4726123 -4.30532715 -100.13842773 -4.43041992 C-66.64253236 -7.31724162 -33.056032 -5.82378197 0 0 Z " fill="#222188" transform="translate(326.8125,115.3125)"/>
</svg>
